<svg xmlns="http://www.w3.org/2000/svg" width="780" height="440" viewBox="0 0 780 440"><defs><style>.a{fill:#76e5e2;}.b{fill:#ff7f6e;}.c{fill:#162020;}.d{fill:#fff;}.e{fill:#17b8ce;}</style></defs><rect class="a" x="0.0018" y="0.0014" width="780" height="440"/><path class="b" d="M448.4646,191.4018l-87.709-11.4642c-22.2474-.6634-40.7988,16.1461-41.4626,38.3934a40.5511,40.5511,0,0,0,39.0706,41.778l60.3782-4.2545,1.9611,60.1707L356.57,320.2375a100.7468,100.7468,0,0,1-97.6987-103.7083c1.6594-55.6182,48.0617-98.3786,103.6787-96.72L449.4758,130.75Z"/><path class="c" d="M356.61,320.8613a101.3682,101.3682,0,0,1-98.3643-104.3506,99.25,99.25,0,0,1,31.8047-70.2783,101.4128,101.4128,0,0,1,72.5176-27.0478L449.5537,130.13a.6255.6255,0,0,1,.5469.63L449.09,191.4121a.6249.6249,0,0,1-.2168.4629.6369.6369,0,0,1-.4892.1465l-87.709-11.4644c-22.167-.6679-40.1045,15.9405-40.7568,37.7925a39.8539,39.8539,0,0,0,10.7754,28.5381,39.2281,39.2281,0,0,0,27.6884,12.5967l60.3164-4.253a.6358.6358,0,0,1,.4629.1592.6251.6251,0,0,1,.2061.4434l1.9609,60.1709a.6264.6264,0,0,1-.584.6445Zm2.8183-200.4775c-53.7744,0-98.333,42.5283-99.9326,96.1641a100.12,100.12,0,0,0,97.0918,103.0644l63.4707-4.1709-1.92-58.918-59.7315,4.209A40.4877,40.4877,0,0,1,329.7793,247.74a41.0993,41.0993,0,0,1-11.1113-29.4277c.6728-22.5527,19.1738-39.7056,42.1064-39l87.0772,11.3784.99-59.3911-86.37-10.8711C361.4561,120.3989,360.4385,120.3838,359.4287,120.3838Z"/><polygon class="d" points="420.773 187.782 426.318 127.835 466.982 132.954 460.178 192.933 420.773 187.782"/><path class="c" d="M460.7275,193.6348l-40.6328-5.3111,5.66-61.1889,41.918,5.2758ZM421.45,187.2407l38.1777,4.99,6.6641-58.7339-39.4121-4.96Z"/><polygon class="d" points="461.6 313.339 420.703 316.025 418.742 255.854 458.384 253.061 461.6 313.339"/><path class="c" d="M420.1,316.6914l-2.0019-61.418,40.8759-2.88,3.2842,61.5283Zm-.7129-60.2559,1.92,58.9239,39.6368-2.6035L457.7939,253.73Z"/><polygon class="c" points="521.131 168.444 497.153 166.764 502.246 157.964 482.053 155.583 482.199 154.341 504.279 156.945 499.237 165.657 521.219 167.197 521.131 168.444"/><polygon class="c" points="482.199 268.337 482.053 267.095 502.246 264.714 497.153 255.914 521.131 254.233 521.219 255.479 499.237 257.021 504.279 265.733 482.199 268.337"/><circle class="e" cx="576.8708" cy="141.2986" r="33.7629" transform="translate(54.5654 424.0393) rotate(-42.1911)"/><path class="c" d="M576.8613,175.6865a34.3879,34.3879,0,0,1-.31-68.7744c.1084-.001.2187-.0015.3281-.0015a34.3869,34.3869,0,0,1,34.3769,34.0684h0A34.3879,34.3879,0,0,1,577.19,175.6851C577.0811,175.686,576.9707,175.6865,576.8613,175.6865Zm.0176-67.5259c-.1045,0-.21.0005-.3154.0015a33.1381,33.1381,0,1,0,33.4433,32.8286h0a33.1375,33.1375,0,0,0-33.1279-32.83Z"/><path class="d" d="M603.9725,161.2328c-2.0613-7.0273-10.3939-12.24-28.0677-12.0754-17.5866.1634-24.5316,5.4655-26.1357,12.4747a33.7637,33.7637,0,0,0,54.2034-.3993Z"/><path class="c" d="M576.7246,175.686a34.5556,34.5556,0,0,1-27.4541-13.6772.6252.6252,0,0,1-.11-.5161c1.9336-8.4531,10.93-12.8135,26.7382-12.9605,20.6055-.1718,26.9678,6.7051,28.6739,12.5249a.6251.6251,0,0,1-.0957.5454A34.1211,34.1211,0,0,1,577.04,175.6846C576.9355,175.6855,576.8291,175.686,576.7246,175.686Zm-26.2783-14.1967a33.382,33.382,0,0,0,26.582,12.9453,32.8728,32.8728,0,0,0,26.2539-13.32c-2.4033-7.4531-12.1289-11.4921-27.372-11.3325C560.94,149.9214,552.375,153.8594,550.4463,161.4893Z"/><circle class="d" cx="576.8708" cy="132.8514" r="15.3508" transform="translate(39.2656 380.6619) rotate(-37.7164)"/><path class="c" d="M576.8691,148.8271a15.9007,15.9007,0,1,1,.15,0h0C576.97,148.8271,576.9189,148.8271,576.8691,148.8271Zm.1446-.6254h0Zm-.1377-30.0757c-.0479,0-.0947,0-.1416,0a14.7256,14.7256,0,0,0,.1347,29.4506c.0469,0,.0918,0,.1387,0h0a14.7257,14.7257,0,0,0-.1318-29.4507Z"/><circle class="e" cx="638.0153" cy="220" r="33.7629" transform="translate(17.5511 485.4952) rotate(-42.1911)"/><path class="c" d="M638.0107,254.3887a34.3882,34.3882,0,0,1-.3144-68.7749c.1094-.001.22-.0015.3281-.0015a34.3871,34.3871,0,0,1,34.377,34.0679h0a34.427,34.427,0,0,1-34.0664,34.7065C638.2275,254.3877,638.1182,254.3887,638.0107,254.3887Zm.0137-67.5264q-.1582,0-.3164.0015a33.1382,33.1382,0,0,0,.3037,66.2749c.1045,0,.2071-.001.3115-.002a33.1758,33.1758,0,0,0,32.8282-33.4448h0a33.1377,33.1377,0,0,0-33.127-32.83Z"/><path class="d" d="M665.117,239.9342c-2.0613-7.0273-10.3939-12.24-28.0677-12.0754-17.5866.1634-24.5316,5.4655-26.1357,12.4746a33.7636,33.7636,0,0,0,54.2034-.3992Z"/><path class="c" d="M637.8691,254.3867A34.5525,34.5525,0,0,1,610.415,240.71a.626.626,0,0,1-.11-.5166c1.9336-8.4522,10.93-12.8125,26.7383-12.96.2793-.0029.5586-.0039.833-.0039,19.9482,0,26.1572,6.7881,27.8408,12.5293a.6235.6235,0,0,1-.0957.5449,34.1179,34.1179,0,0,1-27.4365,14.082C638.08,254.3867,637.9736,254.3867,637.8691,254.3867ZM611.5908,240.19a33.2829,33.2829,0,0,0,26.5821,12.9453,32.8736,32.8736,0,0,0,26.2539-13.3193c-2.3623-7.3262-11.7754-11.3369-26.5957-11.3369-.2579,0-.5157.001-.7764.0039C622.084,228.623,613.52,232.5615,611.5908,240.19Z"/><circle class="d" cx="638.0153" cy="211.5528" r="15.3508" transform="translate(3.896 434.512) rotate(-37.7164)"/><path class="c" d="M638.0146,227.5293a16.0531,16.0531,0,1,1,.1495-.001h0C638.1143,227.5283,638.0635,227.5293,638.0146,227.5293Zm.1436-.626h0Zm-.1387-30.0762c-.0468,0-.0937,0-.1406,0a14.7262,14.7262,0,0,0,.1357,29.4517c.0459,0,.0918-.001.1377-.001h0a14.7259,14.7259,0,0,0-.1328-29.4512Z"/><circle class="e" cx="576.8708" cy="298.7014" r="33.7629" transform="translate(-51.1473 464.821) rotate(-42.1911)"/><path class="c" d="M576.8623,333.09a34.3879,34.3879,0,0,1-.3105-68.7744c.11-.0009.22-.0019.3291-.0019a34.3876,34.3876,0,0,1,34.3759,34.0683h0A34.4269,34.4269,0,0,1,577.19,333.0879C577.082,333.0889,576.9717,333.09,576.8623,333.09Zm.0186-67.5263c-.1065,0-.211.001-.3174.0019a33.1379,33.1379,0,0,0,.3,66.2744c.1045,0,.21-.0009.3154-.0019a33.1756,33.1756,0,0,0,32.8281-33.4443h0a33.1373,33.1373,0,0,0-33.1259-32.83Z"/><path class="d" d="M603.9725,318.6355c-2.0613-7.0272-10.3939-12.24-28.0677-12.0753-17.5866.1634-24.5316,5.4655-26.1357,12.4746a33.7635,33.7635,0,0,0,54.2034-.3993Z"/><path class="c" d="M576.7246,333.0879a34.5557,34.5557,0,0,1-27.4541-13.6758.6256.6256,0,0,1-.11-.5166c1.9336-8.4531,10.93-12.8135,26.7382-12.96,20.6221-.2226,26.9668,6.7041,28.6739,12.5245a.6236.6236,0,0,1-.0957.5449,34.117,34.117,0,0,1-27.4366,14.082C576.9355,333.0879,576.8291,333.0879,576.7246,333.0879Zm-26.2783-14.1953a33.4352,33.4352,0,0,0,26.582,12.9443,32.8711,32.8711,0,0,0,26.2539-13.3193c-2.4033-7.4531-12.0859-11.49-27.372-11.3321C560.94,307.3242,552.375,311.2627,550.4463,318.8926Z"/><circle class="d" cx="576.8708" cy="290.2541" r="15.3508" transform="translate(-57.026 413.5514) rotate(-37.7164)"/><path class="c" d="M576.87,306.2305a16.0534,16.0534,0,1,1,.1494-.001h0C576.97,306.23,576.9189,306.2305,576.87,306.2305Zm.1436-.626h0Zm-.1377-30.0762c-.0479,0-.0947.001-.1416.001a14.7259,14.7259,0,0,0,.1357,29.4512c.0459,0,.0918-.001.1377-.001h0a14.7259,14.7259,0,0,0-.1318-29.4512Z"/><circle class="e" cx="203.1292" cy="141.2986" r="33.7627" transform="translate(-37.983 196.9017) rotate(-47.8088)"/><path class="c" d="M203.1387,175.6865c-.11,0-.2188,0-.3291-.0014a34.388,34.388,0,0,1,.3105-68.7745q.1641,0,.3281.0015a34.3879,34.3879,0,0,1-.31,68.7744Zm-.0176-67.5259a33.1375,33.1375,0,0,0-33.1279,32.83h0a33.1376,33.1376,0,1,0,33.4433-32.8286C203.332,108.1611,203.2256,108.1606,203.1211,108.1606Zm-33.7529,32.8243h0Z"/><circle class="e" cx="141.9847" cy="220" r="33.7627" transform="translate(-116.3729 177.4443) rotate(-47.8088)"/><path class="c" d="M141.9893,254.3887c-.1094,0-.2159-.001-.3243-.002a34.3879,34.3879,0,0,1,.3106-68.7744c.1094,0,.2178,0,.3281.0015a34.3882,34.3882,0,0,1-.3144,68.7749Zm-.0137-67.5264a33.1377,33.1377,0,0,0-33.127,32.83h0a33.1758,33.1758,0,0,0,32.8282,33.4448c.1035.001.208.002.3115.002a33.1382,33.1382,0,0,0,.3037-66.2749Q142.1338,186.8623,141.9756,186.8623Zm-33.752,32.8237h0Z"/><circle class="e" cx="203.1292" cy="298.7014" r="33.7627" transform="translate(-154.604 248.5918) rotate(-47.8088)"/><path class="c" d="M203.1377,333.09c-.1094,0-.2188-.0009-.3281-.0019a34.2832,34.2832,0,1,1,.3281.0019Zm-.0186-67.5263a33.1373,33.1373,0,0,0-33.1259,32.83h0a33.1373,33.1373,0,1,0,33.4433-32.8282C203.3311,265.5645,203.2246,265.5635,203.1191,265.5635Zm-33.7509,32.8242h0Z"/><path class="d" d="M203.2,161.5143c-2.9657,0-4.9855.0528-7.001-.0158a24.9256,24.9256,0,0,1-5.4047-.5147,10.706,10.706,0,0,1-5.7817-3.5188,11.3969,11.3969,0,0,1-2.5006-6.1983,47.1786,47.1786,0,0,1-.2621-5.1984c-.0022-3.4194-.0222-6.8389.0087-10.2579a35.187,35.187,0,0,1,.3222-5.0937,10.6636,10.6636,0,0,1,4.533-7.4841,11.187,11.187,0,0,1,5.2661-1.8841c4.1125-.434,8.2409-.2315,12.3631-.2728,1.76-.0177,3.52-.0081,5.2778.0736a17.6721,17.6721,0,0,1,5.5125.9041,10.3748,10.3748,0,0,1,4.7985,3.5948,11.439,11.439,0,0,1,2.155,6.0661c.3964,5.2492.1933,10.5091.1818,15.7643a24.9389,24.9389,0,0,1-.3725,4.8186,10.98,10.98,0,0,1-3.19,6.0542,10.7279,10.7279,0,0,1-4.9943,2.6317,20.1993,20.1993,0,0,1-3.4911.4261C207.8311,161.58,205.0412,161.4815,203.2,161.5143Zm15.7738-20.212c.006-2.4884.0385-4.9774-.0705-7.4642a15.1783,15.1783,0,0,0-.4768-3.6906,7.001,7.001,0,0,0-1.9588-3.236,7.835,7.835,0,0,0-4.7793-1.9125c-1.8972-.1823-3.8046-.1866-5.7084-.1962-3.2505-.0166-6.5014-.0416-9.7515.05a28.1325,28.1325,0,0,0-3.8847.2751,7.0655,7.0655,0,0,0-4.6024,2.5965,8.3459,8.3459,0,0,0-1.5784,4.4711c-.1558,1.5629-.1608,3.1336-.1789,4.7-.0454,3.934-.0583,7.8693.059,11.8025a16.2751,16.2751,0,0,0,.3835,3.3993,7.0125,7.0125,0,0,0,2.434,3.9246,7.8854,7.8854,0,0,0,4.089,1.574,38.9208,38.9208,0,0,0,4.63.2063c4.0238.0206,8.0483.0674,12.0716-.0572a19.8354,19.8354,0,0,0,3.0749-.2785,7.2045,7.2045,0,0,0,4.1525-2.173,7.4572,7.4572,0,0,0,1.7572-3.72,30.7129,30.7129,0,0,0,.3268-5.0246C219.0126,144.8013,218.9734,143.0512,218.9734,141.3023Z"/><path class="d" d="M202.4245,151.7061a10.4067,10.4067,0,1,1,10.4645-10.4152A10.3931,10.3931,0,0,1,202.4245,151.7061Zm.0551-3.72a6.6786,6.6786,0,1,0-6.68-6.6418A6.6758,6.6758,0,0,0,202.48,147.9863Z"/><path class="d" d="M215.706,130.5357a2.4506,2.4506,0,0,1-2.4445,2.4633,2.4937,2.4937,0,0,1-2.484-2.4473,2.466,2.466,0,0,1,2.4683-2.4841A2.4081,2.4081,0,0,1,215.706,130.5357Z"/><path class="d" d="M143.2145,211.6466v-3.34a1.7691,1.7691,0,0,1,1.8473-2.0065h4.6857v-7.1576l-6.4533-.0273c-7.1631,0-8.791,5.3389-8.791,8.7558v3.7759h-4.1426V220h4.1777v20.8853h8.3535V220h6.2l.3-3.2808.4617-5.0724Z"/><path class="d" d="M223.372,287.7725a17.2927,17.2927,0,0,1-4.9209,1.3269,8.4846,8.4846,0,0,0,3.7695-4.6682,17.2941,17.2941,0,0,1-5.4446,2.0491,8.6141,8.6141,0,0,0-6.253-2.6642,8.4467,8.4467,0,0,0-8.3493,10.3585,24.4591,24.4591,0,0,1-17.6622-8.8146,8.3083,8.3083,0,0,0-1.1619,4.241,8.4068,8.4068,0,0,0,3.8132,7.0208,8.6532,8.6532,0,0,1-3.882-1.0546v.1052a8.2831,8.2831,0,0,0,.5864,3.0576,8.5579,8.5579,0,0,0,6.2893,5.2175,8.85,8.85,0,0,1-2.26.2956,8.5732,8.5732,0,0,1-1.6118-.1536,8.5654,8.5654,0,0,0,8.0055,5.8583,17.3568,17.3568,0,0,1-10.644,3.6128,17.7431,17.7431,0,0,1-2.0464-.118,24.5639,24.5639,0,0,0,13.138,3.79,23.8563,23.8563,0,0,0,23.8015-18.91,23.1808,23.1808,0,0,0,.5828-5.0924c0-.3636-.0068-.73-.0228-1.0911A17.2235,17.2235,0,0,0,223.372,287.7725Z"/></svg>